<?xml version="1.0" encoding="iso-8859-1"?>
<!-- Generator: Adobe Illustrator 19.0.0, SVG Export Plug-In . SVG Version: 6.00 Build 0)  -->
<svg version="1.1" id="Layer_1" xmlns="http://www.w3.org/2000/svg" xmlns:xlink="http://www.w3.org/1999/xlink" x="0px" y="0px"
	 viewBox="0 0 512.001 512.001" style="enable-background:new 0 0 512.001 512.001;" xml:space="preserve">
<rect x="209.913" y="240.442" transform="matrix(-0.7071 -0.7071 0.7071 -0.7071 165.3209 655.6308)" style="fill:#ECE7EA;" width="17.067" height="106.268"/>
<circle style="fill:#F14742;" cx="354.191" cy="157.811" r="157.81"/>
<circle style="fill:#ECE7EA;" cx="354.191" cy="157.811" r="124.018"/>
<path style="fill:#FFFFFF;" d="M290.877,103.028c-2.183,0-4.367-0.833-6.034-2.499c-3.333-3.333-3.333-8.736,0-12.067
	c18.523-18.524,43.153-28.727,69.35-28.727s50.826,10.201,69.349,28.726c3.333,3.333,3.333,8.736,0,12.067
	c-3.333,3.331-8.736,3.333-12.067-0.001c-15.302-15.301-35.644-23.726-57.283-23.726c-21.639,0-41.982,8.426-57.282,23.727
	C295.244,102.194,293.06,103.028,290.877,103.028z"/>
<path style="fill:#1B4145;" d="M188.403,373.254L56.765,504.892c-13.709,13.709-27.934,5.696-41.643-8.013
	S-6.6,468.945,7.109,455.236l131.638-131.638l40.918,8.737L188.403,373.254z"/>
<path style="fill:#C2B8B9;" d="M204.436,357.219l-16.035,16.035l-49.656-49.656l16.035-16.035c13.709-13.709,35.947-13.709,49.656,0
	C218.146,321.273,218.146,343.51,204.436,357.219z"/>
<g>
</g>
<g>
</g>
<g>
</g>
<g>
</g>
<g>
</g>
<g>
</g>
<g>
</g>
<g>
</g>
<g>
</g>
<g>
</g>
<g>
</g>
<g>
</g>
<g>
</g>
<g>
</g>
<g>
</g>
</svg>
